<?xml version="1.0" encoding="utf-8"?>
<!-- Generator: Adobe Illustrator 24.2.0, SVG Export Plug-In . SVG Version: 6.00 Build 0)  -->
<svg version="1.1" id="Layer_1" xmlns="http://www.w3.org/2000/svg" xmlns:xlink="http://www.w3.org/1999/xlink" x="0px" y="0px"
	 viewBox="0 0 560 560" style="enable-background:new 0 0 560 560;" xml:space="preserve">
<style type="text/css">
	.st0{fill:#FFFFFF;}
</style>
<path class="st0" d="M446.7,17H151.3c-34.5,0-62.5,28-62.5,62.5v27H59.4c-6.9,0-12.5,5.6-12.5,12.5s5.6,12.5,12.5,12.5h29.2v82H59.4
	c-6.9,0-12.5,5.6-12.5,12.5c0,6.9,5.6,12.5,12.5,12.5h29.2v82H59.4c-6.9,0-12.5,5.6-12.5,12.5c0,6.9,5.6,12.5,12.5,12.5h29.2v82
	H59.4c-6.9,0-12.5,5.6-12.5,12.5s5.6,12.5,12.5,12.5h29.2v27c0,34.5,28,62.5,62.5,62.5h295.4c34.5,0,62.5-28,62.5-62.5v-400
	C509.1,45,481.2,17,446.7,17z M484.2,479.5c-0.1,20.7-16.8,37.4-37.5,37.5H151.3c-20.7-0.1-37.4-16.8-37.5-37.5v-27H143
	c6.9,0,12.5-5.6,12.5-12.5s-5.6-12.5-12.5-12.5h-29.2v-82H143c6.9,0,12.5-5.6,12.5-12.5c0-6.9-5.6-12.5-12.5-12.5h-29.2v-82H143
	c6.9,0,12.5-5.6,12.5-12.5c0-6.9-5.6-12.5-12.5-12.5h-29.2v-82H143c6.9,0,12.5-5.6,12.5-12.5s-5.6-12.5-12.5-12.5h-29.2v-27
	c0.1-20.7,16.8-37.4,37.5-37.5h295.4c20.7,0.1,37.4,16.8,37.5,37.5V479.5z"/>
<path class="st0" d="M298.9,275.9c33.5,0,60.6-27.1,60.6-60.6s-27.1-60.6-60.6-60.6c-33.5,0-60.6,27.1-60.6,60.6
	C238.3,248.7,265.4,275.8,298.9,275.9z M298.9,179.5c19.7,0,35.6,16,35.6,35.6s-16,35.6-35.6,35.6c-19.7,0-35.6-16-35.6-35.6
	C263.3,195.5,279.3,179.5,298.9,179.5z"/>
<path class="st0" d="M298.9,296c-52,0-92.8,42.1-92.8,96c0,6.9,5.6,12.5,12.5,12.5h160.5c6.9,0,12.5-5.6,12.5-12.5
	C391.7,338.1,350.9,296,298.9,296z M232.2,379.5c5.4-34.1,32.3-58.5,66.8-58.5c34.5,0,61.5,24.4,66.8,58.5H232.2z"/>
</svg>
